<mxfile host="65bd71144e">
    <diagram id="HIP3nbAZw_EuaXWnEj3U" name="Page-1">
        <mxGraphModel dx="906" dy="597" grid="1" gridSize="10" guides="1" tooltips="1" connect="1" arrows="1" fold="1" page="1" pageScale="1" pageWidth="850" pageHeight="1100" background="#ffffff" math="0" shadow="0">
            <root>
                <mxCell id="0"/>
                <mxCell id="1" parent="0"/>
                <mxCell id="7" value="http://ics2o.mths.ca" style="swimlane;whiteSpace=wrap;html=1;shadow=1;" parent="1" vertex="1">
                    <mxGeometry x="40" y="40" width="760" height="495" as="geometry"/>
                </mxCell>
                <mxCell id="14" value="" style="rounded=1;whiteSpace=wrap;html=1;strokeColor=#000000;fillColor=#ffffff;" vertex="1" parent="7">
                    <mxGeometry x="90" y="250" width="150" height="30" as="geometry"/>
                </mxCell>
                <mxCell id="15" value="" style="rounded=1;whiteSpace=wrap;html=1;fillColor=#ffffff;strokeColor=#000000;" vertex="1" parent="7">
                    <mxGeometry x="90" y="300" width="150" height="30" as="geometry"/>
                </mxCell>
                <mxCell id="16" value="Formula is&lt;br style=&quot;font-size: 23px;&quot;&gt;A = [(a + b) / 2] h" style="text;html=1;align=left;verticalAlign=middle;whiteSpace=wrap;rounded=0;strokeWidth=1;fontColor=#000000;fontSize=23;" vertex="1" parent="7">
                    <mxGeometry x="30" y="100" width="190" height="30" as="geometry"/>
                </mxCell>
                <mxCell id="17" value="Area of a Trapezoid, with JS" style="text;html=1;align=left;verticalAlign=middle;whiteSpace=wrap;rounded=0;strokeWidth=1;fontColor=#000000;fontSize=23;fontStyle=1" vertex="1" parent="7">
                    <mxGeometry x="30" y="40" width="310" height="30" as="geometry"/>
                </mxCell>
                <mxCell id="18" value="&lt;font style=&quot;font-size: 23px;&quot; color=&quot;#000000&quot;&gt;Calculate&lt;/font&gt;" style="rounded=1;whiteSpace=wrap;html=1;fillColor=#ffffff;strokeWidth=1;strokeColor=#000000;" vertex="1" parent="7">
                    <mxGeometry x="30" y="390" width="210" height="30" as="geometry"/>
                </mxCell>
                <mxCell id="19" value="A base" style="text;html=1;strokeColor=none;fillColor=none;align=center;verticalAlign=middle;whiteSpace=wrap;rounded=0;strokeWidth=1;fontSize=18;fontColor=#000000;" vertex="1" parent="7">
                    <mxGeometry x="10" y="200" width="90" height="30" as="geometry"/>
                </mxCell>
                <mxCell id="20" value="B base" style="text;html=1;strokeColor=none;fillColor=none;align=center;verticalAlign=middle;whiteSpace=wrap;rounded=0;strokeWidth=1;fontSize=18;fontColor=#000000;" vertex="1" parent="7">
                    <mxGeometry x="10" y="250" width="90" height="30" as="geometry"/>
                </mxCell>
                <mxCell id="21" value="Height" style="text;html=1;strokeColor=none;fillColor=none;align=center;verticalAlign=middle;whiteSpace=wrap;rounded=0;strokeWidth=1;fontSize=18;fontColor=#000000;" vertex="1" parent="7">
                    <mxGeometry x="10" y="300" width="90" height="30" as="geometry"/>
                </mxCell>
                <mxCell id="22" value="mm" style="text;html=1;strokeColor=none;fillColor=none;align=center;verticalAlign=middle;whiteSpace=wrap;rounded=0;strokeWidth=1;fontSize=18;fontColor=#000000;" vertex="1" parent="7">
                    <mxGeometry x="230" y="200" width="60" height="30" as="geometry"/>
                </mxCell>
                <mxCell id="23" value="mm" style="text;html=1;strokeColor=none;fillColor=none;align=center;verticalAlign=middle;whiteSpace=wrap;rounded=0;strokeWidth=1;fontSize=18;fontColor=#000000;" vertex="1" parent="7">
                    <mxGeometry x="230" y="250" width="60" height="30" as="geometry"/>
                </mxCell>
                <mxCell id="24" value="mm" style="text;html=1;strokeColor=none;fillColor=none;align=center;verticalAlign=middle;whiteSpace=wrap;rounded=0;strokeWidth=1;fontSize=18;fontColor=#000000;" vertex="1" parent="7">
                    <mxGeometry x="230" y="300" width="60" height="30" as="geometry"/>
                </mxCell>
                <mxCell id="25" value="Area is:" style="text;html=1;strokeColor=none;fillColor=none;align=center;verticalAlign=middle;whiteSpace=wrap;rounded=0;strokeWidth=1;fontSize=18;fontColor=#000000;" vertex="1" parent="7">
                    <mxGeometry y="440" width="120" height="30" as="geometry"/>
                </mxCell>
                <mxCell id="29" value="" style="shape=image;imageAspect=0;aspect=fixed;verticalLabelPosition=bottom;verticalAlign=top;shadow=1;strokeColor=#000000;strokeWidth=1;fontSize=18;fontColor=#000000;fillColor=#ffffff;image=data:image/png,UklGRq4KAABXRUJQVlA4TKIKAAAvqEJGEJ/htrZtJbpoRkgRlEe/mrk7zNx322DcRpKi3t3DKC7Hy/h+zAw9zTaSpEYNLtGSGSG9r7UWDCLbVvL+x+VcJAVBCEMDWpKCBO4z0Xf1UFXVBFgBS1br6kk57YH1VD6vzCR8PtD4H+UQ+4jfjz+Vf4NJDPGSkALEBLEkEUJl9hvgF4SSCBCEcTTXuVznSIrUet4Z5XGOjzJOQ8e2TjrPlfva+Z5L33vx+279vhvyhXxFvpCvzD7SMvccBW3bSAl/2PvvCETEBADWWLJsXLi1HnzuLt6ubdsaXcq27N0HHA0iL3rgRA9dNOr//5N9zqqkfMmOrxH9nwA6tm23DZ31yp8ce3fgAx4RD+Y/OkKOMh/EKqL/E/CH+K/Sf/x/SYXnVKc/paA+pA4oDykFe0gZpOeUaq7V5uOpQuE6jqdTA5rlASM8nGCoiMwG+dkUoMg1wHg2KdhCGoSPFMtR0u0zSKsK+q6mVRhFtx7Qwv3TVYP5puJgnXddVtWYoc97V2EuAgx5zwnGqRornJvO5Jog37sG5yJDfk9z0IJcz562nmSYtw6gHBJOQN/TCYd4/z8LB8Q7F6A21qe850aRD4GA3bkZLc66OOVNgz1D1oeZBfl4HRDv33tvlE9Bhrk3Tjg+Awmy7M05aGFx9rTpsqrGAn1uDkkwTtVYwTbdyxbkz3/5aQ8OX5I4WGfZeKMk+Yu//7EL65dkWoVRVPbcy6XhVb70+d+SAWsGdva7oyIycMF0c6xZEI1e7o09DYbOcW80//hXORALpluDfx6SIBq93BgD/xJZOHSOG2PiX9MgFkz3xco/7WkQjV5uiwPyYOgct8WZC7FguiskQxz0ck+M6VA6xz0xpUNMmG6Jlb9+7qkQB324Iw6WR+Ri6bQ74qRmQ0xYbgiUdIiDPtwOI9f83LOhdNrtMNOQDTFhuRtW1oyIgz7cDI05JUqn3QwXNSViwnIvIHIiDvpwJ1SumJ97RpROuxNmWsQjUnLCciOsrGkRG324DxpzXpSLdh9c1Jife05ExXIXFEQgKWLDeBNUztQoF+dNsHCkRlSs98DGmhuxYbwFGlNylIvzFuiMEfNzz4uoWG+AgoiIR2TmhjH/Kmd+lIsz/xaO/IiKNf021oiYn3tqxIYx+xpTRCA3ysWZfZ0xQ2LEmnsDIkVixZh6lZYkcXKm3sqeJSO2zNtZ/2x+7ukRK2riNeqfxSMS9OQqeYchT0ZsaTcg8iRW1KyrtF/Mzz1D4uQqSbey/wIpMmJLup01VWJFzblGzZU4uUrKoSTLiC3jRnokS6yoCTfRfjU/9yyJk6vk28r2q3hEmg6dLd8OlnyJBTXdTmrCROMq2Ybyq/m5J8rQOZJtpMevkSixYMq1iZYz0egl1Va2pBk6R6odLEkTC6ZMO6lZE41eEg3xu/NzT5ahc+RZ5fq9eES2LpjSbKYlTjR6ybKVNXOGzpFljfn35ueeLjFjSrKL+nvIlzjoJccQuVM6R4pVruSJCXOGzbTsiYM+JNjKmj6l0xKsMX9hfu4pExOW/LoYvxCPSNqDPmRXQSRQ6bTsqpwZFBOW5Fo4vjI/96yJgz7k1sb6FaRN6bTcakw5FBOW1OqMSRQHfUisgsii0mmJVTnTKCqWvFo4vjQ/98yJjT6k1cb6pXhE6paLllaNKZGiYs0qDJkUG8acGhBfnp978pSLM6cq7WtInqhYU2plT6bYMGbUzppN5eLMqEbNpqhYEwpDOsWGMZ0GxNfn555A5eJMp0r7RjwigyvWbFrZMyo2jMm0s6ZUOTmT6aR+Y37uKRQj1lxC+QZyKFaMmTTSI6ni5CyJNNHSasSWSCvbjwnbJVbUPDpYfkyj75Y4uUoandTvzM/9VVC3y4gtjVC+E494cdgxsaIm0UiPn6Jg+yVOrpJDE+3H2J4ZseXQyvat+bm/ToPVasdWiRU1hQ7mb+FFFQrLtFXi5CoZdFF/TAOa5QGErTJiyyDEj4GhIjI7xK0SK2r+VK4fM6HK1SDtlWhcJX1m2o9RsFe6WYbOlj4r6/fm5/6a9KpC2CyxoGZPY/5ePOK1BrpoINu10UvyXNQfUyAsoO2XoXMkD+LHVJBrgLpfYsGUOpXrBfNzfw20hYJtmGj0kjkz7QV4yYS6SJtm6ByZs7L+nGhxYaA7JhZMidOYfsyfjLmGLRONXvKmM/68fTt0jrQpiDyLBVPWVM5XzM89qaLRS9IsHK+IR2T10DmSZmNNtZgw5UxjyrU46CVlOuMr5ueeV6VzZExBvBJ5FRPmhKmc6RYHfciXhSPfSqfly8aabzFhSZdGTbg46EO2YHjJ/Nxzq3RasgyI1z4iuScsuVJpORcHfUiVlT3pSqelys76mvm5Z1dMWDKlUV+D9IqDPiQKhrQrFy1PBkTaRcWSJpWWeLHRhyxZ2TOvXJxZcrC8aH7uGRYVa5Kc1BfFI3J8w5gjKLlXLs4UGemRe1GxZshEe9X83JMsNowJsrK9CllWLs4EOVjSLyrW/Dip+RcbxvRAuQHKxZkdIz1ugKhYk2OivWx+7okWG8bcWNleFo9I9ZMzNxrzTTBiTY2LehPEijEzEC+fn3uuxclV8qJyvQ7JNmLLi5l2H8SKmhYr640QJ1fJisZ8J4zYsuKi3gmxoiYF4vXzc8+3OLlKSlSuN8QjEn7ElhIzx80QK2pGbKx3Q5xcJSEa0xvm555yI7aE6IxvQMrFgpoOBXE/ROMq2VA574ihs2XDwnFHxIIpGTbWWyIaveRCY3rH/NzTbugcudAZ3xGPyPsFUyYUxE0RjV4SoXLeFkPnSISF/S3zc0+8WDDlwc76FmReNHpJg0a9MYbOkQYYboxYMCXBgLgzotFLDlTavVE6Rw6s7O+Zn3vyxYQpBXbW98Qj0v+glwxo1LujdI4MwHB3xITl8xsQ752fe/7FQR8+vkp7E26A0mkf38p2g8SE5dM7WO6QOOjDh3dSb5HSaR8eyi0SE5aPbqTHm+fnfg/EQR8+uYn2rnjETVg67ZNb2e6SmLB8cAfLu6a/9dpW8i12+vC5ndR3/ebVNeHKRfvcUN7lRoiK5VMb6fEDany/JV1s9PFDm2m3Srk4P7SV9VaJivUza8z3SmwYP7KL+rbfboZycX5kiLe3myEq1g+sct0usWH8vGba/VIuzs9rZX3fb7dDVKwfV2N+n/shNoyf1kW9Y8rF+Wkh7pioWD+rynXPxIrxo1o4bpo4OT+qjfUH/HZPjFg/qcb0A9o9ESvqB9UZb5s4ucrHVBD3zYjtY6poP/Dv+bv+/X/gb1r2d9RPaXb/rp/S0G+fPn1KUerP/Iu/fO2f6h04xMf0Xzn/Z7YC5QPFyxYdEQDC5wqiH4wxMP+kBrQzeCqrqiZofujkTHdPZj3UUSbXE9wQ4TggeieSo6YKY/qruyHTRTrZO3LItUDyU1ZVNUhemGAiBtM7QVVEIpif1j2KFwyCSADzzawAeSaHUaYXOkVEpNB9U4HaGBnUTyYicgzMCcqfVM8c0INIqMDhLDnpTsh/JnvGIMm1g/gLH8xB1WVlTMekV9AdlVVVDZoPEiRZJkiOCdCDiChUR72OPmgMeTlojhED6tmA0101ig8cHTtQDMxN/8dZJCKHyGH5eELt7//33wMK;" vertex="1" parent="7">
                    <mxGeometry x="350" y="166.88" width="390" height="161.25" as="geometry"/>
                </mxCell>
                <mxCell id="30" value="Please enter the integers for the dimensions:" style="text;html=1;strokeColor=none;fillColor=none;align=center;verticalAlign=middle;whiteSpace=wrap;rounded=0;strokeWidth=1;fontSize=18;fontColor=#000000;" vertex="1" parent="7">
                    <mxGeometry x="10" y="160" width="380" height="30" as="geometry"/>
                </mxCell>
                <mxCell id="13" value="" style="rounded=1;whiteSpace=wrap;html=1;fillColor=#ffffff;strokeWidth=1;strokeColor=#000000;" vertex="1" parent="1">
                    <mxGeometry x="130" y="240" width="150" height="30" as="geometry"/>
                </mxCell>
            </root>
        </mxGraphModel>
    </diagram>
</mxfile>